<svg width="163" height="29" viewBox="0 0 163 29" fill="none" xmlns="http://www.w3.org/2000/svg">
<path d="M17.488 22.8733H7.75396L5.90338 28.425H9.16049e-06L10.0302 1.48052H15.1748L25.2605 28.425H19.3571L17.488 22.8733ZM9.25294 18.3764H15.9891L12.6025 8.29067L9.25294 18.3764ZM46.6059 18.5984C46.6059 21.8061 45.9212 24.3106 44.5518 26.1118C43.1823 27.9007 41.2701 28.7952 38.8149 28.7952C36.6436 28.7952 34.9102 27.9624 33.6148 26.2969L33.3742 28.425H28.5627V4.76837e-05H33.9109V10.1968C35.1446 8.75332 36.767 8.03159 38.7779 8.03159C41.2207 8.03159 43.133 8.93221 44.5147 10.7334C45.9089 12.5223 46.6059 15.0453 46.6059 18.3023V18.5984ZM41.2577 18.2098C41.2577 16.1865 40.9369 14.7122 40.2954 13.7869C39.6539 12.8493 38.6977 12.3805 37.427 12.3805C35.7245 12.3805 34.5524 13.0775 33.9109 14.4716V22.3736C34.5648 23.7801 35.7491 24.4833 37.464 24.4833C39.1912 24.4833 40.3263 23.632 40.8691 21.9295C41.1282 21.1152 41.2577 19.8753 41.2577 18.2098ZM50.2227 18.2283C50.2227 16.242 50.6051 14.4716 51.3701 12.9171C52.135 11.3626 53.233 10.1598 54.6641 9.3085C56.1076 8.45723 57.7793 8.03159 59.6792 8.03159C62.381 8.03159 64.5832 8.85819 66.2858 10.5114C68.0007 12.1646 68.9568 14.4099 69.1542 17.2475L69.1912 18.6169C69.1912 21.6889 68.3338 24.1564 66.6189 26.0193C64.904 27.8699 62.6031 28.7952 59.7162 28.7952C56.8293 28.7952 54.5222 27.8699 52.795 26.0193C51.0801 24.1687 50.2227 21.6519 50.2227 18.4689V18.2283ZM55.5709 18.6169C55.5709 20.5169 55.9287 21.9727 56.6442 22.9843C57.3598 23.9836 58.3838 24.4833 59.7162 24.4833C61.0116 24.4833 62.0233 23.9898 62.7512 23.0028C63.4791 22.0035 63.843 20.412 63.843 18.2283C63.843 16.3654 63.4791 14.9219 62.7512 13.8979C62.0233 12.874 60.9993 12.362 59.6792 12.362C58.3714 12.362 57.3598 12.874 56.6442 13.8979C55.9287 14.9096 55.5709 16.4826 55.5709 18.6169ZM85.614 26.3894C84.294 27.9932 82.468 28.7952 80.1363 28.7952C77.9896 28.7952 76.3488 28.1783 75.2137 26.9446C74.0911 25.7109 73.5174 23.9035 73.4927 21.5224V8.40171H78.8409V21.3373C78.8409 23.4223 79.7909 24.4648 81.6908 24.4648C83.5044 24.4648 84.7504 23.8356 85.429 22.5772V8.40171H90.7957V28.425H85.7621L85.614 26.3894ZM102.37 3.47915V8.40171H105.794V12.325H102.37V22.3181C102.37 23.0583 102.512 23.5889 102.796 23.9096C103.079 24.2304 103.622 24.3908 104.424 24.3908C105.016 24.3908 105.541 24.3476 105.997 24.2612V28.314C104.948 28.6348 103.869 28.7952 102.759 28.7952C99.0081 28.7952 97.0958 26.9014 97.0218 23.1139V12.325H94.0979V8.40171H97.0218V3.47915H102.37ZM141.23 1.48052V19.2276C141.23 22.1762 140.305 24.508 138.454 26.2229C136.616 27.9377 134.099 28.7952 130.904 28.7952C127.758 28.7952 125.26 27.9624 123.409 26.2969C121.558 24.6313 120.615 22.3428 120.578 19.4312V1.48052H126.129V19.2646C126.129 21.0289 126.549 22.3181 127.388 23.1324C128.239 23.9343 129.411 24.3353 130.904 24.3353C134.025 24.3353 135.61 22.6944 135.66 19.4127V1.48052H141.23ZM157.412 22.8918C157.412 22.2379 157.085 21.7259 156.432 21.3558C155.79 20.9734 154.754 20.6341 153.323 20.338C148.56 19.3387 146.179 17.3154 146.179 14.2681C146.179 12.4915 146.913 11.011 148.381 9.82666C149.862 8.62995 151.793 8.03159 154.174 8.03159C156.715 8.03159 158.745 8.62995 160.262 9.82666C161.792 11.0234 162.557 12.5779 162.557 14.4901H157.209C157.209 13.7252 156.962 13.096 156.469 12.6025C155.975 12.0967 155.204 11.8438 154.155 11.8438C153.255 11.8438 152.558 12.0474 152.064 12.4545C151.571 12.8616 151.324 13.3798 151.324 14.009C151.324 14.6012 151.601 15.0823 152.157 15.4524C152.724 15.8102 153.674 16.1248 155.007 16.3962C156.339 16.6553 157.462 16.9514 158.375 17.2845C161.2 18.3208 162.612 20.1159 162.612 22.6697C162.612 24.4956 161.829 25.9761 160.262 27.1111C158.695 28.2338 156.672 28.7952 154.192 28.7952C152.514 28.7952 151.022 28.4991 149.714 27.9069C148.418 27.3024 147.401 26.4819 146.66 25.4456C145.92 24.3969 145.55 23.2681 145.55 22.059H150.621C150.67 23.009 151.022 23.7369 151.676 24.2427C152.329 24.7486 153.205 25.0015 154.303 25.0015C155.327 25.0015 156.098 24.8102 156.617 24.4278C157.147 24.033 157.412 23.521 157.412 22.8918Z" fill="#F28E13"/>
</svg>
