<svg width="143" height="37" viewBox="0 0 143 37" fill="none" xmlns="http://www.w3.org/2000/svg">
<path d="M7.72625e-06 28.425V1.48052H9.438C12.7074 1.48052 15.1872 2.10972 16.8774 3.36811C18.5676 4.61418 19.4127 6.44626 19.4127 8.86435C19.4127 10.1844 19.0734 11.3503 18.3948 12.362C17.7163 13.3613 16.7725 14.0953 15.5634 14.5642C16.9452 14.9096 18.0309 15.6067 18.8205 16.6553C19.6224 17.704 20.0233 18.9871 20.0233 20.5045C20.0233 23.0954 19.1968 25.057 17.5436 26.3894C15.8904 27.7218 13.534 28.4004 10.4743 28.425H7.72625e-06ZM5.55177 16.6923V23.9651H10.3078C11.6155 23.9651 12.6333 23.6567 13.3612 23.0398C14.1015 22.4106 14.4716 21.547 14.4716 20.449C14.4716 17.9816 13.1947 16.7293 10.6409 16.6923H5.55177ZM5.55177 12.7691H9.66007C12.4606 12.7197 13.8609 11.6032 13.8609 9.41953C13.8609 8.19814 13.5031 7.3222 12.7876 6.7917C12.0843 6.24886 10.9678 5.97744 9.438 5.97744H5.55177V12.7691ZM24.1583 18.2283C24.1583 16.242 24.5408 14.4716 25.3057 12.9171C26.0706 11.3626 27.1686 10.1598 28.5997 9.3085C30.0432 8.45723 31.7149 8.03159 33.6148 8.03159C36.3166 8.03159 38.5188 8.85819 40.2214 10.5114C41.9363 12.1646 42.8924 14.4099 43.0898 17.2475L43.1268 18.6169C43.1268 21.6889 42.2694 24.1564 40.5545 26.0193C38.8396 27.8699 36.5387 28.7952 33.6518 28.7952C30.7649 28.7952 28.4578 27.8699 26.7306 26.0193C25.0157 24.1687 24.1583 21.6519 24.1583 18.4689V18.2283ZM29.5065 18.6169C29.5065 20.5169 29.8643 21.9727 30.5798 22.9843C31.2954 23.9836 32.3194 24.4833 33.6518 24.4833C34.9472 24.4833 35.9589 23.9898 36.6868 23.0028C37.4147 22.0035 37.7786 20.412 37.7786 18.2283C37.7786 16.3654 37.4147 14.9219 36.6868 13.8979C35.9589 12.874 34.9349 12.362 33.6148 12.362C32.307 12.362 31.2954 12.874 30.5798 13.8979C29.8643 14.9096 29.5065 16.4826 29.5065 18.6169ZM46.7251 18.2283C46.7251 16.242 47.1075 14.4716 47.8725 12.9171C48.6374 11.3626 49.7354 10.1598 51.1665 9.3085C52.61 8.45723 54.2816 8.03159 56.1816 8.03159C58.8834 8.03159 61.0856 8.85819 62.7882 10.5114C64.503 12.1646 65.4592 14.4099 65.6566 17.2475L65.6936 18.6169C65.6936 21.6889 64.8362 24.1564 63.1213 26.0193C61.4064 27.8699 59.1055 28.7952 56.2186 28.7952C53.3317 28.7952 51.0246 27.8699 49.2974 26.0193C47.5825 24.1687 46.7251 21.6519 46.7251 18.4689V18.2283ZM52.0733 18.6169C52.0733 20.5169 52.4311 21.9727 53.1466 22.9843C53.8622 23.9836 54.8862 24.4833 56.2186 24.4833C57.514 24.4833 58.5257 23.9898 59.2536 23.0028C59.9815 22.0035 60.3454 20.412 60.3454 18.2283C60.3454 16.3654 59.9815 14.9219 59.2536 13.8979C58.5257 12.874 57.5017 12.362 56.1816 12.362C54.8738 12.362 53.8622 12.874 53.1466 13.8979C52.4311 14.9096 52.0733 16.4826 52.0733 18.6169ZM77.3974 20.3935L75.4728 22.3181V28.425H70.1246V4.76837e-05H75.4728V15.7485L76.5092 14.4161L81.6353 8.40171H88.0568L80.821 16.7479L88.686 28.425H82.5421L77.3974 20.3935ZM97.1513 28.425H91.7846V8.40171H97.1513V28.425ZM91.47 3.22007C91.47 2.41815 91.7353 1.7581 92.2658 1.23994C92.8086 0.721776 93.5427 0.462694 94.468 0.462694C95.3809 0.462694 96.1088 0.721776 96.6517 1.23994C97.1945 1.7581 97.4659 2.41815 97.4659 3.22007C97.4659 4.03433 97.1883 4.70054 96.6332 5.2187C96.0903 5.73686 95.3686 5.99595 94.468 5.99595C93.5674 5.99595 92.8395 5.73686 92.2843 5.2187C91.7415 4.70054 91.47 4.03433 91.47 3.22007ZM107.634 8.40171L107.8 10.7149C109.231 8.92604 111.15 8.03159 113.556 8.03159C115.678 8.03159 117.257 8.65462 118.293 9.90068C119.329 11.1467 119.86 13.0097 119.885 15.4895V28.425H114.536V15.619C114.536 14.484 114.29 13.6635 113.796 13.1577C113.303 12.6396 112.482 12.3805 111.335 12.3805C109.83 12.3805 108.701 13.022 107.948 14.3051V28.425H102.6V8.40171H107.634ZM124.316 18.2653C124.316 15.1934 125.044 12.7197 126.499 10.8445C127.968 8.96922 129.941 8.03159 132.421 8.03159C134.617 8.03159 136.326 8.78416 137.547 10.2893L137.769 8.40171H142.618V27.7588C142.618 29.5107 142.217 31.0344 141.415 32.3298C140.626 33.6252 139.509 34.6122 138.066 35.2907C136.622 35.9693 134.932 36.3085 132.995 36.3085C131.527 36.3085 130.096 36.0125 128.702 35.4203C127.307 34.8404 126.253 34.0878 125.537 33.1625L127.906 29.9055C129.238 31.3983 130.854 32.1447 132.754 32.1447C134.173 32.1447 135.277 31.7623 136.067 30.9974C136.857 30.2448 137.251 29.1715 137.251 27.7773V26.704C136.018 28.0981 134.395 28.7952 132.384 28.7952C129.979 28.7952 128.029 27.8575 126.536 25.9823C125.056 24.0947 124.316 21.5964 124.316 18.4874V18.2653ZM129.664 18.654C129.664 20.4675 130.028 21.8925 130.756 22.9288C131.484 23.9528 132.483 24.4648 133.754 24.4648C135.382 24.4648 136.548 23.8541 137.251 22.6327V14.2125C136.536 12.9912 135.382 12.3805 133.791 12.3805C132.508 12.3805 131.496 12.9048 130.756 13.9535C130.028 15.0021 129.664 16.569 129.664 18.654Z" fill="#F28E13"/>
</svg>
