<svg width="174" height="29" viewBox="0 0 174 29" fill="none" xmlns="http://www.w3.org/2000/svg">
<path d="M22.2343 15.3975C22.2343 18.0377 21.7901 20.3447 20.9019 22.3187C20.0136 24.2803 18.7552 25.7793 17.1267 26.8156C15.4981 27.852 13.5982 28.3701 11.4268 28.3701C9.30484 28.3701 7.42342 27.852 5.78256 26.8156C4.14171 25.767 2.86481 24.2803 1.95185 22.3557C1.05123 20.4188 0.588584 18.1796 0.56391 15.6381V13.695C0.56391 11.1041 1.01422 8.81559 1.91484 6.8293C2.81546 4.843 4.08619 3.32552 5.72704 2.27685C7.38024 1.21585 9.26783 0.68535 11.3898 0.68535C13.5489 0.68535 15.4488 1.20968 17.0896 2.25835C18.7428 3.29468 20.0136 4.80599 20.9019 6.79228C21.7901 8.76624 22.2343 11.0671 22.2343 13.695V15.3975ZM18.6997 13.658C18.6997 10.4626 18.0581 8.01367 16.775 6.31113C15.492 4.59626 13.6969 3.73882 11.3898 3.73882C9.14446 3.73882 7.37407 4.59626 6.07866 6.31113C4.79558 8.01367 4.13554 10.3824 4.09853 13.4174V15.3975C4.09853 18.4942 4.74623 20.9308 6.04164 22.7073C7.34939 24.4715 9.14446 25.3537 11.4268 25.3537C13.7216 25.3537 15.4981 24.5209 16.7565 22.8554C18.0149 21.1775 18.6626 18.7779 18.6997 15.6566V13.658ZM40.5262 26.0199C39.1938 27.5867 37.2383 28.3701 34.6598 28.3701C32.5255 28.3701 30.897 27.7533 29.7743 26.5195C28.6639 25.2735 28.1026 23.4352 28.0903 21.0048V7.97666H31.5139V20.9123C31.5139 23.9472 32.7476 25.4647 35.215 25.4647C37.8305 25.4647 39.5701 24.4901 40.4337 22.5408V7.97666H43.8573V28H40.6002L40.5262 26.0199ZM59.8915 11.0486C59.3733 10.9623 58.812 10.9191 58.2074 10.9191C55.9621 10.9191 54.4384 11.8752 53.6365 13.7875V28H50.2129V7.97666H53.544L53.5995 10.2899C54.7222 8.50099 56.3137 7.60654 58.374 7.60654C59.0402 7.60654 59.546 7.6929 59.8915 7.86562V11.0486Z" fill="#3B5E8C"/>
<path d="M84.5576 18.1364H80.1347V28H74.5829V1.05547H84.5946C87.7776 1.05547 90.2327 1.76486 91.9599 3.18364C93.6871 4.60242 94.5507 6.60723 94.5507 9.19805C94.5507 11.0363 94.1498 12.5723 93.3479 13.806C92.5583 15.0274 91.3554 16.002 89.7392 16.7299L95.5686 27.7409V28H89.6097L84.5576 18.1364ZM80.1347 13.6395H84.6131C86.0072 13.6395 87.0867 13.2878 87.8516 12.5846C88.6165 11.8691 88.999 10.8882 88.999 9.64219C88.999 8.37145 88.635 7.37213 87.9071 6.64424C87.1916 5.91634 86.0874 5.55239 84.5946 5.55239H80.1347V13.6395ZM98.7412 17.8033C98.7412 15.817 99.1237 14.0466 99.8886 12.4921C100.653 10.9376 101.751 9.73472 103.183 8.88345C104.626 8.03218 106.298 7.60654 108.198 7.60654C110.9 7.60654 113.102 8.43314 114.804 10.0863C116.519 11.7395 117.475 13.9849 117.673 16.8225L117.71 18.1919C117.71 21.2639 116.852 23.7313 115.137 25.5942C113.423 27.4448 111.122 28.3701 108.235 28.3701C105.348 28.3701 103.041 27.4448 101.314 25.5942C99.5986 23.7437 98.7412 21.2269 98.7412 18.0438V17.8033ZM104.089 18.1919C104.089 20.0918 104.447 21.5476 105.163 22.5593C105.878 23.5586 106.902 24.0583 108.235 24.0583C109.53 24.0583 110.542 23.5648 111.27 22.5778C111.998 21.5785 112.362 19.987 112.362 17.8033C112.362 15.9403 111.998 14.4969 111.27 13.4729C110.542 12.4489 109.518 11.9369 108.198 11.9369C106.89 11.9369 105.878 12.4489 105.163 13.4729C104.447 14.4846 104.089 16.0576 104.089 18.1919ZM121.308 17.8033C121.308 15.817 121.69 14.0466 122.455 12.4921C123.22 10.9376 124.318 9.73472 125.749 8.88345C127.193 8.03218 128.865 7.60654 130.764 7.60654C133.466 7.60654 135.669 8.43314 137.371 10.0863C139.086 11.7395 140.042 13.9849 140.239 16.8225L140.276 18.1919C140.276 21.2639 139.419 23.7313 137.704 25.5942C135.989 27.4448 133.688 28.3701 130.801 28.3701C127.915 28.3701 125.608 27.4448 123.88 25.5942C122.165 23.7437 121.308 21.2269 121.308 18.0438V17.8033ZM126.656 18.1919C126.656 20.0918 127.014 21.5476 127.73 22.5593C128.445 23.5586 129.469 24.0583 130.801 24.0583C132.097 24.0583 133.109 23.5648 133.836 22.5778C134.564 21.5785 134.928 19.987 134.928 17.8033C134.928 15.9403 134.564 14.4969 133.836 13.4729C133.109 12.4489 132.085 11.9369 130.764 11.9369C129.457 11.9369 128.445 12.4489 127.73 13.4729C127.014 14.4846 126.656 16.0576 126.656 18.1919ZM149.723 7.97666L149.889 10.2159C151.308 8.47632 153.226 7.60654 155.644 7.60654C158.223 7.60654 159.993 8.62436 160.956 10.66C162.362 8.62436 164.367 7.60654 166.97 7.60654C169.141 7.60654 170.758 8.24191 171.819 9.51265C172.88 10.771 173.41 12.671 173.41 15.2125V28H168.043V15.231C168.043 14.0959 167.821 13.2693 167.377 12.7512C166.933 12.2207 166.15 11.9554 165.027 11.9554C163.423 11.9554 162.313 12.7203 161.696 14.2501L161.714 28H156.366V15.2495C156.366 14.0898 156.138 13.2508 155.682 12.7327C155.225 12.2145 154.448 11.9554 153.35 11.9554C151.832 11.9554 150.734 12.5846 150.056 13.843V28H144.708V7.97666H149.723Z" fill="#F28E13"/>
</svg>
