<svg width="153" height="29" viewBox="0 0 153 29" fill="none" xmlns="http://www.w3.org/2000/svg">
<path d="M15.1008 20.8932C15.1008 19.8445 14.7307 19.0426 13.9905 18.4874C13.2502 17.9199 11.9178 17.3277 9.9932 16.7108C8.06859 16.0816 6.54494 15.4648 5.42225 14.8603C2.36261 13.2071 0.832796 10.9802 0.832796 8.17964C0.832796 6.72384 1.23993 5.42843 2.05418 4.29341C2.88078 3.14604 4.05898 2.25159 5.5888 1.61006C7.13096 0.968521 8.85817 0.647753 10.7704 0.647753C12.6951 0.647753 14.4099 0.999364 15.9151 1.70259C17.4202 2.39347 18.5861 3.37428 19.4127 4.64502C20.2516 5.91575 20.6711 7.35921 20.6711 8.97539H15.1193C15.1193 7.74167 14.7307 6.78553 13.9535 6.10698C13.1762 5.4161 12.0844 5.07065 10.6779 5.07065C9.32082 5.07065 8.26598 5.36058 7.51341 5.94043C6.76084 6.50794 6.38455 7.26051 6.38455 8.19814C6.38455 9.07409 6.82253 9.80815 7.69847 10.4003C8.58675 10.9925 9.88833 11.5477 11.6032 12.0659C14.7615 13.0158 17.0624 14.194 18.5059 15.6005C19.9493 17.0069 20.6711 18.7588 20.6711 20.8562C20.6711 23.1879 19.789 25.02 18.0247 26.3524C16.2605 27.6725 13.8856 28.3325 10.9 28.3325C8.82733 28.3325 6.93973 27.9562 5.23719 27.2037C3.53465 26.4388 2.23307 25.3963 1.33245 24.0762C0.444173 22.7561 3.26671e-05 21.2263 3.26671e-05 19.4867H5.5703C5.5703 22.46 7.34686 23.9466 10.9 23.9466C12.2201 23.9466 13.2502 23.6814 13.9905 23.1509C14.7307 22.608 15.1008 21.8555 15.1008 20.8932ZM34.4476 28.3325C31.5113 28.3325 29.1179 27.4319 27.2673 25.6307C25.4291 23.8294 24.5099 21.4298 24.5099 18.4319V17.9137C24.5099 15.9028 24.8986 14.1077 25.6758 12.5285C26.4531 10.937 27.5511 9.71562 28.9698 8.86435C30.401 8.00075 32.0295 7.56894 33.8554 7.56894C36.5943 7.56894 38.7471 8.43255 40.3139 10.1598C41.8931 11.887 42.6827 14.3359 42.6827 17.5066V19.6903H29.9322C30.1049 20.998 30.623 22.0467 31.4866 22.8363C32.3626 23.6259 33.4668 24.0207 34.7992 24.0207C36.8595 24.0207 38.4695 23.2743 39.6292 21.7814L42.2571 24.7239C41.4551 25.8589 40.3695 26.7472 39 27.3887C37.6306 28.0179 36.1131 28.3325 34.4476 28.3325ZM33.8369 11.8993C32.7759 11.8993 31.9123 12.2571 31.2461 12.9727C30.5922 13.6882 30.1727 14.7122 29.9877 16.0446H37.427V15.619C37.4024 14.4346 37.0816 13.5217 36.4647 12.8801C35.8479 12.2263 34.9719 11.8993 33.8369 11.8993ZM58.1247 12.9541C57.3968 12.8555 56.7553 12.8061 56.2001 12.8061C54.1768 12.8061 52.8505 13.4908 52.2213 14.8603V27.9624H46.8732V7.93906H51.9253L52.0733 10.3263C53.1466 8.48807 54.6333 7.56894 56.5332 7.56894C57.1254 7.56894 57.6806 7.64914 58.1987 7.80952L58.1247 12.9541ZM69.6805 21.4298L73.4002 7.93906H78.989L72.2343 27.9624H67.1267L60.3721 7.93906H65.9608L69.6805 21.4298ZM88.139 27.9624H82.7723V7.93906H88.139V27.9624ZM82.4577 2.75742C82.4577 1.9555 82.723 1.29546 83.2535 0.777294C83.7963 0.25913 84.5304 4.77023e-05 85.4557 4.77023e-05C86.3686 4.77023e-05 87.0965 0.25913 87.6393 0.777294C88.1822 1.29546 88.4536 1.9555 88.4536 2.75742C88.4536 3.57168 88.176 4.23789 87.6208 4.75605C87.078 5.27422 86.3563 5.5333 85.4557 5.5333C84.555 5.5333 83.8271 5.27422 83.272 4.75605C82.7291 4.23789 82.4577 3.57168 82.4577 2.75742ZM102.027 24.0207C103.014 24.0207 103.815 23.7492 104.432 23.2064C105.049 22.6636 105.37 21.9418 105.395 21.0412H110.41C110.397 22.3983 110.027 23.6444 109.299 24.7794C108.571 25.9021 107.572 26.778 106.301 27.4072C105.043 28.0241 103.649 28.3325 102.119 28.3325C99.2568 28.3325 96.9991 27.4257 95.3459 25.6122C93.6927 23.7862 92.8661 21.2694 92.8661 18.0618V17.7102C92.8661 14.6258 93.6866 12.1646 95.3274 10.3263C96.9683 8.48807 99.2198 7.56894 102.082 7.56894C104.587 7.56894 106.591 8.2845 108.096 9.71562C109.614 11.1344 110.385 13.0282 110.41 15.3969H105.395C105.37 14.3606 105.049 13.5217 104.432 12.8801C103.815 12.2263 103.001 11.8993 101.99 11.8993C100.743 11.8993 99.7997 12.3558 99.1581 13.2687C98.5289 14.1694 98.2143 15.6375 98.2143 17.6731V18.2283C98.2143 20.2886 98.5289 21.7691 99.1581 22.6697C99.7873 23.5703 100.743 24.0207 102.027 24.0207ZM123.816 28.3325C120.88 28.3325 118.486 27.4319 116.636 25.6307C114.798 23.8294 113.878 21.4298 113.878 18.4319V17.9137C113.878 15.9028 114.267 14.1077 115.044 12.5285C115.822 10.937 116.92 9.71562 118.338 8.86435C119.769 8.00075 121.398 7.56894 123.224 7.56894C125.963 7.56894 128.116 8.43255 129.682 10.1598C131.262 11.887 132.051 14.3359 132.051 17.5066V19.6903H119.301C119.473 20.998 119.992 22.0467 120.855 22.8363C121.731 23.6259 122.835 24.0207 124.168 24.0207C126.228 24.0207 127.838 23.2743 128.998 21.7814L131.626 24.7239C130.824 25.8589 129.738 26.7472 128.369 27.3887C126.999 28.0179 125.482 28.3325 123.816 28.3325ZM123.205 11.8993C122.144 11.8993 121.281 12.2571 120.615 12.9727C119.961 13.6882 119.541 14.7122 119.356 16.0446H126.796V15.619C126.771 14.4346 126.45 13.5217 125.833 12.8801C125.216 12.2263 124.34 11.8993 123.205 11.8993ZM147.086 22.4292C147.086 21.7753 146.759 21.2633 146.105 20.8932C145.464 20.5107 144.427 20.1714 142.996 19.8753C138.234 18.876 135.853 16.8527 135.853 13.8054C135.853 12.0289 136.587 10.5484 138.055 9.36401C139.536 8.1673 141.466 7.56894 143.848 7.56894C146.389 7.56894 148.419 8.1673 149.936 9.36401C151.466 10.5607 152.231 12.1152 152.231 14.0275H146.883C146.883 13.2626 146.636 12.6334 146.142 12.1399C145.649 11.6341 144.878 11.3812 143.829 11.3812C142.928 11.3812 142.231 11.5847 141.738 11.9918C141.244 12.399 140.998 12.9171 140.998 13.5463C140.998 14.1385 141.275 14.6197 141.83 14.9898C142.398 15.3476 143.348 15.6622 144.68 15.9336C146.013 16.1927 147.135 16.4888 148.048 16.8219C150.874 17.8582 152.286 19.6533 152.286 22.2071C152.286 24.033 151.503 25.5135 149.936 26.6485C148.369 27.7712 146.346 28.3325 143.866 28.3325C142.188 28.3325 140.695 28.0364 139.388 27.4442C138.092 26.8397 137.074 26.0193 136.334 24.983C135.594 23.9343 135.224 22.8054 135.224 21.5964H140.294C140.344 22.5464 140.695 23.2743 141.349 23.7801C142.003 24.2859 142.879 24.5388 143.977 24.5388C145.001 24.5388 145.772 24.3476 146.29 23.9651C146.821 23.5703 147.086 23.0583 147.086 22.4292Z" fill="#F28E13"/>
</svg>
