<svg width="22" height="27" viewBox="0 0 22 27" fill="none" xmlns="http://www.w3.org/2000/svg">
<path fill-rule="evenodd" clip-rule="evenodd" d="M14.6941 9C15.9233 9 17.1058 9.53 17.9757 10.481C18.8466 11.43 19.3333 12.71 19.3333 14.05V21.95C19.3333 24.74 17.2525 27 14.6941 27H5.63833C3.07992 27 1 24.74 1 21.95V14.05C1 11.26 3.07075 9 5.63833 9H14.6941ZM16.1525 15.54L16.2258 15.46C16.4449 15.17 16.4449 14.75 16.2158 14.46C16.0883 14.311 15.9133 14.22 15.7308 14.2C15.5383 14.189 15.355 14.26 15.2166 14.4L11.0833 18C10.5517 18.481 9.78992 18.481 9.25001 18L5.12501 14.4C4.83992 14.17 4.44576 14.2 4.20834 14.47C3.96084 14.74 3.93334 15.17 4.14326 15.47L4.26334 15.6L8.43417 19.15C8.94751 19.59 9.56992 19.83 10.2217 19.83C10.8716 19.83 11.505 19.59 12.0174 19.15L16.1525 15.54Z" fill="#0083CA"/>
</svg>
