<svg width="24" height="24" viewBox="0 0 24 24" fill="none" xmlns="http://www.w3.org/2000/svg">
<path d="M8.90049 6.86636C8.90625 7.1151 8.86223 7.36249 8.77102 7.59398C8.6798 7.82548 8.54324 8.0364 8.36935 8.21437C8.19546 8.39233 7.98775 8.53374 7.75843 8.63028C7.52911 8.72683 7.28281 8.77656 7.03399 8.77656C6.78518 8.77656 6.53887 8.72683 6.30955 8.63028C6.08023 8.53374 5.87253 8.39233 5.69864 8.21437C5.52475 8.0364 5.38818 7.82548 5.29697 7.59398C5.20576 7.36249 5.16173 7.1151 5.16749 6.86636C5.17551 6.37655 5.37571 5.90952 5.72492 5.56598C6.07413 5.22244 6.54437 5.02991 7.03424 5.02991C7.52411 5.02991 7.99435 5.22244 8.34356 5.56598C8.69278 5.90952 8.89298 6.37655 8.90099 6.86636H8.90049Z" fill="#F28E13"/>
<path fill-rule="evenodd" clip-rule="evenodd" d="M4.84801 12.9975C4.70744 13.2224 4.48329 13.3822 4.22487 13.4419C3.96644 13.5015 3.69491 13.456 3.47001 13.3155C3.2451 13.1749 3.08525 12.9507 3.02561 12.6923C2.96598 12.4339 3.01144 12.1624 3.15201 11.9375L3.15401 11.9345L3.15751 11.929L3.16951 11.91C3.23293 11.81 3.29811 11.7111 3.36501 11.6135C3.49251 11.426 3.67201 11.172 3.87601 10.9135C4.07551 10.6615 4.32051 10.377 4.57951 10.146C4.70901 10.0305 4.86501 9.90746 5.04151 9.80846C5.20751 9.71546 5.46701 9.60046 5.78451 9.60046H8.28251C8.60001 9.60046 8.85951 9.71546 9.02601 9.80846C9.20201 9.90746 9.35851 10.0305 9.48751 10.146C9.74651 10.377 9.99201 10.6615 10.191 10.914C10.4428 11.2341 10.6786 11.5665 10.8975 11.91L10.91 11.929L10.9135 11.934L10.915 11.937C10.8975 11.91 10.915 11.937 10.915 11.937C11.0517 12.1617 11.0944 12.4313 11.0337 12.6872C10.9731 12.9432 10.814 13.165 10.5909 13.3045C10.3679 13.444 10.0989 13.49 9.8422 13.4325C9.58549 13.375 9.36177 13.2187 9.21951 12.9975L9.21801 12.9955L9.21001 12.983C9.18502 12.9436 9.15969 12.9044 9.13401 12.8655V14.1075L9.49551 17.905C9.51824 18.1638 9.43931 18.4214 9.27545 18.623C9.1116 18.8247 8.87567 18.9547 8.61765 18.9854C8.35962 19.0162 8.09976 18.9453 7.89311 18.7877C7.68645 18.6302 7.54923 18.3984 7.51051 18.1415L7.00001 14.5715L6.49001 18.1415C6.45349 18.4004 6.31701 18.6347 6.10981 18.7942C5.90261 18.9537 5.64118 19.0257 5.38153 18.9948C5.12188 18.9639 4.88467 18.8325 4.72074 18.6288C4.5568 18.425 4.47918 18.1652 4.50451 17.905L4.92451 13.5H4.93351V12.865C4.9077 12.9041 4.8822 12.9434 4.85701 12.983L4.84951 12.9955L4.84801 12.9975Z" fill="#F28E13"/>
<path d="M18.9005 6.86626C18.9005 7.36135 18.7038 7.83617 18.3537 8.18625C18.0036 8.53634 17.5288 8.73301 17.0337 8.73301C16.5387 8.73301 16.0638 8.53634 15.7138 8.18625C15.3637 7.83617 15.167 7.36135 15.167 6.86626C15.167 6.37117 15.3637 5.89635 15.7138 5.54627C16.0638 5.19619 16.5387 4.99951 17.0337 4.99951C17.5288 4.99951 18.0036 5.19619 18.3537 5.54627C18.7038 5.89635 18.9005 6.37117 18.9005 6.86626Z" fill="#F28E13"/>
<path fill-rule="evenodd" clip-rule="evenodd" d="M14.8512 12.8925C14.7097 13.1137 14.4869 13.2703 14.231 13.3287C13.975 13.387 13.7063 13.3423 13.483 13.2043C13.2597 13.0662 13.0996 12.8459 13.0373 12.5908C12.9751 12.3357 13.0156 12.0664 13.1502 11.841L13.1517 11.838L13.1557 11.8325L13.1672 11.8135L13.2097 11.7465C13.4148 11.4273 13.6338 11.1174 13.8662 10.8175C14.0632 10.5655 14.3062 10.2805 14.5622 10.049C14.6907 9.9335 14.8457 9.8095 15.0212 9.7105C15.1862 9.6165 15.4462 9.5 15.7652 9.5H18.2362C18.5552 9.5 18.8152 9.6165 18.9807 9.71C19.1557 9.81 19.3107 9.9335 19.4392 10.049C19.6957 10.2805 19.9382 10.5655 20.1352 10.8175C20.3844 11.1377 20.6177 11.4699 20.8342 11.813L20.8462 11.8325L20.8512 11.841C20.9907 12.0666 21.0349 12.3383 20.974 12.5965C20.9132 12.8546 20.7523 13.078 20.5267 13.2175C20.3011 13.357 20.0294 13.4012 19.7712 13.3403C19.5131 13.2795 19.2897 13.1186 19.1502 12.893L19.1487 12.8905L19.1412 12.878C19.066 12.7595 18.9885 12.6425 18.9087 12.527C19.1427 13.692 19.6037 15.29 19.8447 16.098C19.8648 16.1636 19.8711 16.2327 19.8631 16.3008C19.8552 16.369 19.8331 16.4348 19.7985 16.494C19.7638 16.5532 19.7172 16.6046 19.6616 16.6448C19.6061 16.6851 19.5428 16.7134 19.4757 16.728C17.7072 17.0965 16.4692 17.087 14.5487 16.721C14.4798 16.7074 14.4145 16.6795 14.3571 16.639C14.2997 16.5985 14.2515 16.5463 14.2157 16.4859C14.1798 16.4255 14.1571 16.3582 14.149 16.2885C14.1409 16.2187 14.1476 16.148 14.1687 16.081C14.4212 15.269 14.8907 13.688 15.1132 12.497C15.0264 12.6224 14.9421 12.7494 14.8602 12.878L14.8527 12.8905L14.8512 12.8925Z" fill="#F28E13"/>
<path fill-rule="evenodd" clip-rule="evenodd" d="M14.7988 17.5757V18.2497C14.799 18.4315 14.8652 18.607 14.985 18.7436C15.1049 18.8802 15.2703 18.9686 15.4505 18.9925C15.6306 19.0163 15.8133 18.9739 15.9646 18.8732C16.1159 18.7724 16.2254 18.6202 16.2728 18.4447L16.4703 17.7127C15.9113 17.6929 15.3536 17.6471 14.7988 17.5757ZM17.6263 17.7107L17.8248 18.4452C17.8723 18.6207 17.9818 18.773 18.1332 18.8737C18.2845 18.9745 18.4672 19.0169 18.6474 18.9929C18.8276 18.969 18.993 18.8805 19.1129 18.7438C19.2327 18.6071 19.2988 18.4315 19.2988 18.2497V17.5687C18.7437 17.6407 18.1857 17.6879 17.6263 17.7102V17.7107Z" fill="#F28E13"/>
</svg>
