<svg width="24" height="24" viewBox="0 0 24 24" fill="none" xmlns="http://www.w3.org/2000/svg">
<path d="M10.821 2.00299L10.921 2.01999L19.421 4.01999C19.5685 4.0545 19.7021 4.13288 19.8042 4.2448C19.9063 4.35672 19.9721 4.49694 19.993 4.64699L20 4.74999V19.25C20.0001 19.4015 19.9542 19.5495 19.8685 19.6744C19.7829 19.7994 19.6613 19.8955 19.52 19.95L19.422 19.98L10.922 21.98C10.8203 22.004 10.7147 22.0064 10.612 21.9872C10.5093 21.9679 10.4118 21.9275 10.3256 21.8683C10.2395 21.8092 10.1666 21.7327 10.1118 21.6438C10.0569 21.5549 10.0212 21.4555 10.007 21.352L10 21.25V2.74999C9.99987 2.55567 10.0752 2.36889 10.21 2.22898C10.3449 2.08908 10.5288 2.00699 10.723 1.99999L10.821 2.00299ZM11.5 3.69699V20.303L18.5 18.656V5.34399L11.5 3.69699ZM9 3.99999V5.49999H5.5V18.5H9V20H4.75C4.56876 20 4.39366 19.9343 4.25707 19.8152C4.12048 19.6961 4.03165 19.5315 4.007 19.352L4 19.25V4.74999C4.00001 4.56875 4.06564 4.39365 4.18477 4.25706C4.30389 4.12047 4.46845 4.03164 4.648 4.00699L4.75 3.99999H9ZM14 11C14.2652 11 14.5196 11.1053 14.7071 11.2929C14.8946 11.4804 15 11.7348 15 12C15 12.2652 14.8946 12.5196 14.7071 12.7071C14.5196 12.8946 14.2652 13 14 13C13.7348 13 13.4804 12.8946 13.2929 12.7071C13.1054 12.5196 13 12.2652 13 12C13 11.7348 13.1054 11.4804 13.2929 11.2929C13.4804 11.1053 13.7348 11 14 11Z" fill="white"/>
</svg>
