<svg width="15" height="15" viewBox="0 0 15 15" fill="none" xmlns="http://www.w3.org/2000/svg">
<path d="M6.57548 5.33054V6.30591H5.86148V7.49804H6.57548V11.0418H8.04315V7.49804H9.02773C9.02773 7.49804 9.12052 6.92641 9.16515 6.30095H8.04881V5.48637C8.04881 5.36383 8.2089 5.2002 8.36756 5.2002H9.16656V3.9585H8.07927C6.53936 3.9585 6.57548 5.15204 6.57548 5.33054Z" fill="white"/>
<path d="M3.25001 1.83341C2.87428 1.83341 2.51395 1.98267 2.24827 2.24835C1.98259 2.51402 1.83334 2.87436 1.83334 3.25008V11.7501C1.83334 12.1258 1.98259 12.4861 2.24827 12.7518C2.51395 13.0175 2.87428 13.1667 3.25001 13.1667H11.75C12.1257 13.1667 12.4861 13.0175 12.7517 12.7518C13.0174 12.4861 13.1667 12.1258 13.1667 11.7501V3.25008C13.1667 2.87436 13.0174 2.51402 12.7517 2.24835C12.4861 1.98267 12.1257 1.83341 11.75 1.83341H3.25001ZM3.25001 0.416748H11.75C12.5015 0.416748 13.2221 0.715259 13.7535 1.24661C14.2848 1.77797 14.5833 2.49863 14.5833 3.25008V11.7501C14.5833 12.5015 14.2848 13.2222 13.7535 13.7536C13.2221 14.2849 12.5015 14.5834 11.75 14.5834H3.25001C2.49856 14.5834 1.77789 14.2849 1.24654 13.7536C0.715183 13.2222 0.416672 12.5015 0.416672 11.7501V3.25008C0.416672 2.49863 0.715183 1.77797 1.24654 1.24661C1.77789 0.715259 2.49856 0.416748 3.25001 0.416748Z" fill="white"/>
</svg>
