<svg width="22" height="16" viewBox="0 0 22 16" fill="none" xmlns="http://www.w3.org/2000/svg">
<path d="M8 11L5.032 13.968C4.70167 14.2983 4.28084 14.5232 3.8227 14.6143C3.36457 14.7054 2.88971 14.6586 2.45815 14.4799C2.0266 14.3011 1.65773 13.9984 1.39819 13.6101C1.13864 13.2217 1.00007 12.7651 1 12.298V11L2.357 4.216C2.53824 3.30922 3.02806 2.49325 3.74312 1.90691C4.45817 1.32058 5.35429 1.0001 6.279 1H15.721C16.6457 1.0001 17.5418 1.32058 18.2569 1.90691C18.9719 2.49325 19.4618 3.30922 19.643 4.216L21 11V12.297C20.9999 12.7641 20.8614 13.2207 20.6018 13.6091C20.3423 13.9974 19.9734 14.3001 19.5418 14.4789C19.1103 14.6576 18.6354 14.7044 18.1773 14.6133C17.7192 14.5222 17.2983 14.2973 16.968 13.967L14 11H8Z" stroke="white" stroke-width="2" stroke-linecap="round" stroke-linejoin="round"/>
</svg>
