<svg width="17" height="17" viewBox="0 0 17 17" fill="none" xmlns="http://www.w3.org/2000/svg">
<path fill-rule="evenodd" clip-rule="evenodd" d="M4.84875 0.0491865C5.7285 0.00894299 6.009 0 8.25 0C10.491 0 10.7715 0.00968824 11.6505 0.0491865C12.5295 0.0886848 13.1295 0.228047 13.6545 0.430009C14.2042 0.636444 14.703 0.959137 15.1155 1.37648C15.5355 1.78562 15.8595 2.28047 16.0665 2.82748C16.2705 3.34916 16.41 3.94536 16.4505 4.8173C16.491 5.69297 16.5 5.97169 16.5 8.19775C16.5 10.4246 16.4902 10.7033 16.4505 11.5775C16.4107 12.4494 16.2705 13.0456 16.0665 13.5673C15.8595 14.1144 15.535 14.61 15.1155 15.0198C14.703 15.4371 14.2042 15.7591 13.6545 15.9648C13.1295 16.1675 12.5295 16.3061 11.652 16.3463C10.7715 16.3866 10.491 16.3955 8.25 16.3955C6.009 16.3955 5.7285 16.3858 4.84875 16.3463C3.97125 16.3068 3.37125 16.1675 2.84625 15.9648C2.29569 15.759 1.79687 15.4366 1.3845 15.0198C0.964785 14.6104 0.639986 14.115 0.43275 13.568C0.2295 13.0464 0.09 12.4502 0.0495 11.5782C0.00899999 10.7025 0 10.4238 0 8.19775C0 5.97095 0.00974999 5.69222 0.0495 4.81879C0.08925 3.94536 0.2295 3.34916 0.43275 2.82748C0.640292 2.28053 0.965339 1.78511 1.38525 1.37573C1.79703 0.958765 2.29535 0.636029 2.8455 0.430009C3.3705 0.228047 3.9705 0.08943 4.848 0.0491865H4.84875ZM11.5837 1.52478C10.7137 1.48528 10.4528 1.47709 8.25 1.47709C6.04725 1.47709 5.78625 1.48528 4.91625 1.52478C4.1115 1.5613 3.675 1.6947 3.384 1.80723C2.99925 1.95628 2.724 2.13291 2.43525 2.41983C2.16153 2.68443 1.95089 3.00655 1.81875 3.36257C1.7055 3.65173 1.57125 4.08546 1.5345 4.88512C1.49475 5.74961 1.4865 6.00895 1.4865 8.19775C1.4865 10.3866 1.49475 10.6459 1.5345 11.5104C1.57125 12.31 1.7055 12.7438 1.81875 13.0329C1.95075 13.3884 2.1615 13.7111 2.43525 13.9757C2.7015 14.2477 3.02625 14.4571 3.384 14.5883C3.675 14.7008 4.1115 14.8342 4.91625 14.8707C5.78625 14.9102 6.0465 14.9184 8.25 14.9184C10.4535 14.9184 10.7137 14.9102 11.5837 14.8707C12.3885 14.8342 12.825 14.7008 13.116 14.5883C13.5008 14.4392 13.776 14.2626 14.0648 13.9757C14.3385 13.7111 14.5493 13.3884 14.6813 13.0329C14.7945 12.7438 14.9288 12.31 14.9655 11.5104C15.0052 10.6459 15.0135 10.3866 15.0135 8.19775C15.0135 6.00895 15.0052 5.74961 14.9655 4.88512C14.9288 4.08546 14.7945 3.65173 14.6813 3.36257C14.5313 2.98026 14.3535 2.70675 14.0648 2.41983C13.7984 2.14786 13.4743 1.93855 13.116 1.80723C12.825 1.6947 12.3885 1.5613 11.5837 1.52478ZM7.19625 10.7249C7.78474 10.9683 8.44003 11.0012 9.0502 10.8178C9.66036 10.6345 10.1875 10.2464 10.5417 9.71974C10.8959 9.19309 11.055 8.56059 10.992 7.93029C10.929 7.29998 10.6478 6.71096 10.1962 6.26383C9.90843 5.97801 9.56041 5.75915 9.17725 5.62302C8.79409 5.48689 8.38532 5.43687 7.98037 5.47656C7.57542 5.51625 7.18436 5.64466 6.83535 5.85255C6.48634 6.06044 6.18806 6.34264 5.96198 6.67882C5.7359 7.01501 5.58764 7.39682 5.52789 7.79678C5.46813 8.19673 5.49836 8.60488 5.6164 8.99183C5.73445 9.37878 5.93736 9.73491 6.21054 10.0346C6.48372 10.3343 6.82037 10.57 7.19625 10.7249ZM5.2515 5.21824C5.64527 4.82697 6.11274 4.51659 6.62722 4.30484C7.14171 4.09308 7.69313 3.98409 8.25 3.98409C8.80687 3.98409 9.35829 4.09308 9.87278 4.30483C10.3873 4.51659 10.8547 4.82697 11.2485 5.21824C11.6423 5.60952 11.9546 6.07403 12.1677 6.58525C12.3808 7.09648 12.4905 7.64441 12.4905 8.19775C12.4905 8.7511 12.3808 9.29903 12.1677 9.81025C11.9546 10.3215 11.6423 10.786 11.2485 11.1773C10.4532 11.9675 9.37466 12.4114 8.25 12.4114C7.12534 12.4114 6.04675 11.9675 5.2515 11.1773C4.45625 10.387 4.00948 9.31529 4.00948 8.19775C4.00948 7.08022 4.45625 6.00846 5.2515 5.21824ZM13.431 4.61161C13.5286 4.52014 13.6067 4.41015 13.6607 4.28815C13.7148 4.16615 13.7436 4.03461 13.7456 3.90133C13.7475 3.76805 13.7225 3.63574 13.6721 3.51222C13.6217 3.38871 13.5468 3.2765 13.452 3.18225C13.3571 3.088 13.2442 3.01361 13.1199 2.9635C12.9956 2.91339 12.8624 2.88857 12.7283 2.89052C12.5942 2.89246 12.4618 2.92112 12.339 2.97481C12.2162 3.0285 12.1055 3.10613 12.0135 3.20309C11.8345 3.39166 11.7365 3.64213 11.7403 3.90133C11.7441 4.16054 11.8494 4.40807 12.0339 4.59137C12.2183 4.77467 12.4674 4.87932 12.7283 4.8831C12.9892 4.88688 13.2412 4.78949 13.431 4.61161Z" fill="white"/>
</svg>
