<svg width="24" height="24" viewBox="0 0 24 24" fill="none" xmlns="http://www.w3.org/2000/svg">
<path d="M6.248 16.002C7.214 16.002 7.998 16.786 7.998 17.752V20.25C7.998 20.7141 7.81363 21.1592 7.48544 21.4874C7.15725 21.8156 6.71213 22 6.248 22H3.75C3.28587 22 2.84075 21.8156 2.51256 21.4874C2.18437 21.1592 2 20.7141 2 20.25V17.752C2 16.786 2.784 16.002 3.75 16.002H6.248ZM6.248 17.502H3.75C3.6837 17.502 3.62011 17.5283 3.57322 17.5752C3.52634 17.6221 3.5 17.6857 3.5 17.752V20.25C3.5 20.388 3.612 20.5 3.75 20.5H6.248C6.3143 20.5 6.37789 20.4737 6.42478 20.4268C6.47166 20.3799 6.498 20.3163 6.498 20.25V17.752C6.498 17.6857 6.47166 17.6221 6.42478 17.5752C6.37789 17.5283 6.3143 17.502 6.248 17.502ZM9.748 18H21.253C21.443 18.0001 21.6259 18.0722 21.7648 18.202C21.9036 18.3317 21.9881 18.5093 22.001 18.6989C22.014 18.8885 21.9545 19.0759 21.8346 19.2233C21.7147 19.3707 21.5432 19.4671 21.355 19.493L21.253 19.5H9.748C9.55798 19.4999 9.37506 19.4278 9.23621 19.298C9.09736 19.1683 9.01293 18.9907 8.99997 18.8011C8.98702 18.6115 9.04651 18.4241 9.16643 18.2767C9.28635 18.1293 9.45775 18.0329 9.646 18.007L9.748 18H21.253H9.748ZM6.248 9.001C7.214 9.001 7.998 9.785 7.998 10.751V13.249C7.998 13.7131 7.81363 14.1582 7.48544 14.4864C7.15725 14.8146 6.71213 14.999 6.248 14.999H3.75C3.28587 14.999 2.84075 14.8146 2.51256 14.4864C2.18437 14.1582 2 13.7131 2 13.249V10.75C2 9.784 2.784 9 3.75 9H6.248V9.001ZM6.248 10.501H3.75C3.6837 10.501 3.62011 10.5273 3.57322 10.5742C3.52634 10.6211 3.5 10.6847 3.5 10.751V13.249C3.5 13.387 3.612 13.499 3.75 13.499H6.248C6.3143 13.499 6.37789 13.4727 6.42478 13.4258C6.47166 13.3789 6.498 13.3153 6.498 13.249V10.75C6.498 10.6837 6.47166 10.6201 6.42478 10.5732C6.37789 10.5263 6.3143 10.5 6.248 10.5V10.501ZM9.748 11H21.253C21.443 11.0001 21.6259 11.0722 21.7648 11.202C21.9036 11.3317 21.9881 11.5093 22.001 11.6989C22.014 11.8885 21.9545 12.0759 21.8346 12.2233C21.7147 12.3707 21.5432 12.4671 21.355 12.493L21.253 12.5H9.748C9.55798 12.4999 9.37506 12.4278 9.23621 12.298C9.09736 12.1683 9.01293 11.9907 8.99997 11.8011C8.98702 11.6115 9.04651 11.4241 9.16643 11.2767C9.28635 11.1293 9.45775 11.0329 9.646 11.007L9.748 11H21.253H9.748ZM6.248 2C7.214 2 7.998 2.784 7.998 3.75V6.248C7.998 6.71213 7.81363 7.15725 7.48544 7.48544C7.15725 7.81363 6.71213 7.998 6.248 7.998H3.75C3.28587 7.998 2.84075 7.81363 2.51256 7.48544C2.18437 7.15725 2 6.71213 2 6.248V3.75C2 2.784 2.784 2 3.75 2H6.248ZM6.248 3.5H3.75C3.6837 3.5 3.62011 3.52634 3.57322 3.57322C3.52634 3.62011 3.5 3.6837 3.5 3.75V6.248C3.5 6.386 3.612 6.498 3.75 6.498H6.248C6.3143 6.498 6.37789 6.47166 6.42478 6.42478C6.47166 6.37789 6.498 6.3143 6.498 6.248V3.75C6.498 3.6837 6.47166 3.62011 6.42478 3.57322C6.37789 3.52634 6.3143 3.5 6.248 3.5ZM9.748 4H21.253C21.443 4.00006 21.6259 4.07224 21.7648 4.20197C21.9036 4.3317 21.9881 4.5093 22.001 4.69888C22.014 4.88846 21.9545 5.07589 21.8346 5.2233C21.7147 5.37071 21.5432 5.4671 21.355 5.493L21.253 5.5H9.748C9.55798 5.49994 9.37506 5.42776 9.23621 5.29803C9.09736 5.1683 9.01293 4.9907 8.99997 4.80112C8.98702 4.61154 9.04651 4.42411 9.16643 4.2767C9.28635 4.12929 9.45775 4.0329 9.646 4.007L9.748 4H21.253H9.748Z" fill="#F28E13"/>
</svg>
