<svg width="16" height="20" viewBox="0 0 16 20" fill="none" xmlns="http://www.w3.org/2000/svg">
<path fill-rule="evenodd" clip-rule="evenodd" d="M7.81918 1.98268e-05C9.89085 0.00995637 11.8709 0.904245 13.3192 2.47422C14.7767 4.05413 15.5925 6.19048 15.5834 8.40633V8.45601C15.5284 11.4668 13.97 14.2391 12.0267 16.4052C10.9267 17.6274 9.70752 18.7105 8.37835 19.6247C8.02085 19.9526 7.49835 19.9526 7.14085 19.6247C5.17001 18.2336 3.42834 16.4847 2.01667 14.4477C0.779168 12.679 0.0733335 10.5526 0 8.33677C0.0183334 3.71628 3.52001 -0.00991668 7.81918 1.98268e-05ZM7.81902 11.189C8.46985 11.189 9.09318 10.9207 9.55152 10.4338C10.0282 9.92697 10.2949 9.25226 10.2949 8.54574C10.2949 7.07507 9.18485 5.89258 7.81902 5.89258C6.45319 5.89258 5.35319 7.07507 5.35319 8.54574C5.35319 9.99753 6.43485 11.1691 7.79152 11.189H7.81902Z" fill="#0083CA"/>
</svg>
