<svg width="19" height="18" viewBox="0 0 19 18" fill="none" xmlns="http://www.w3.org/2000/svg">
<path fill-rule="evenodd" clip-rule="evenodd" d="M13.6941 0C14.9233 0 16.1058 0.53 16.9757 1.481C17.8466 2.43 18.3333 3.71 18.3333 5.05V12.95C18.3333 15.74 16.2525 18 13.6941 18H4.63833C2.07992 18 0 15.74 0 12.95V5.05C0 2.26 2.07075 0 4.63833 0H13.6941ZM15.1525 6.54L15.2258 6.46C15.4449 6.17 15.4449 5.75 15.2158 5.46C15.0883 5.311 14.9133 5.22 14.7308 5.2C14.5383 5.189 14.355 5.26 14.2166 5.4L10.0833 9C9.55167 9.481 8.78992 9.481 8.25001 9L4.12501 5.4C3.83992 5.17 3.44576 5.2 3.20834 5.47C2.96084 5.74 2.93334 6.17 3.14326 6.47L3.26334 6.6L7.43417 10.15C7.94751 10.59 8.56992 10.83 9.22167 10.83C9.87159 10.83 10.505 10.59 11.0174 10.15L15.1525 6.54Z" fill="#0083CA"/>
</svg>
