<svg width="24" height="24" viewBox="0 0 24 24" fill="none" xmlns="http://www.w3.org/2000/svg">
<path d="M18.4502 8.4H10.9502C10.7513 8.4 10.5605 8.47902 10.4199 8.61967C10.2792 8.76032 10.2002 8.95109 10.2002 9.15V12.15C10.202 13.2125 10.5794 14.2401 11.2656 15.0512C11.9518 15.8623 12.9027 16.4047 13.9502 16.5825V21.15H11.7002V22.65H17.7002V21.15H15.4502V16.5825C16.4977 16.4047 17.4485 15.8623 18.1348 15.0512C18.821 14.2401 19.1984 13.2125 19.2002 12.15V9.15C19.2002 8.95109 19.1212 8.76032 18.9805 8.61967C18.8399 8.47902 18.6491 8.4 18.4502 8.4ZM17.7002 12.15C17.7002 12.9457 17.3841 13.7087 16.8215 14.2713C16.2589 14.8339 15.4958 15.15 14.7002 15.15C13.9045 15.15 13.1415 14.8339 12.5789 14.2713C12.0163 13.7087 11.7002 12.9457 11.7002 12.15V9.9H17.7002V12.15Z" fill="white"/>
<path d="M11.2499 0.75H7.4999C7.30098 0.75 7.11022 0.829018 6.96957 0.96967C6.82891 1.11032 6.7499 1.30109 6.7499 1.5V7.0275C6.0211 7.45446 5.42498 8.07514 5.02777 8.82057C4.63057 9.56599 4.44784 10.407 4.4999 11.25V21.75C4.4999 21.9489 4.57891 22.1397 4.71957 22.2803C4.86022 22.421 5.05098 22.5 5.2499 22.5H8.99989V21H5.9999V11.25C5.9999 8.859 7.67315 8.235 7.7369 8.21175L8.24989 8.04V2.25H10.4999V6H11.9999V1.5C11.9999 1.30109 11.9209 1.11032 11.7802 0.96967C11.6396 0.829018 11.4488 0.75 11.2499 0.75Z" fill="white"/>
</svg>
