<svg width="13" height="20" viewBox="0 0 13 20" fill="none" xmlns="http://www.w3.org/2000/svg">
<path fill-rule="evenodd" clip-rule="evenodd" d="M0.00775436 8.63961C0.00775436 8.02489 0.0145833 7.41017 0.0214439 6.7926C0.024922 6.47951 0.0284084 6.16568 0.0310171 5.85075C0.0310171 2.46707 1.9851 0 4.68358 0H8.14975C10.8482 0 12.8023 2.46707 12.8023 5.85075C12.8256 7.20617 12.8333 8.5616 12.8333 9.92677C12.8333 11.2919 12.8256 12.6669 12.8023 14.0223C12.8023 17.406 10.8482 19.873 8.14975 19.873H4.68358C1.9851 19.873 0.0310171 17.406 0.0310171 14.0125C0.0155085 12.7351 0 11.4285 0 10.1023L0.00775436 8.63961ZM7.58997 17.5287V17.6876C7.58997 18.3569 7.07369 18.8799 6.41661 18.8799C5.77517 18.8799 5.24325 18.3569 5.24325 17.6876V17.5287C5.24325 16.8769 5.77517 16.3364 6.41661 16.3364C7.07369 16.3364 7.58997 16.8769 7.58997 17.5287ZM1.84881 6.40266C1.84391 6.80409 1.83903 7.20368 1.83903 7.60326L1.8335 8.55404C1.8335 9.41609 1.84457 10.2655 1.85565 11.0958C1.85565 13.3016 3.25142 14.9053 5.17891 14.9053H7.65474C9.58224 14.9053 10.978 13.3016 10.978 11.1021C10.9946 10.2211 11.0002 9.32735 11.0002 8.43995C11.0002 7.55255 10.9946 6.67149 10.978 5.79044C10.978 3.59096 9.58224 1.9873 7.65474 1.9873H5.17891C3.25142 1.9873 1.85565 3.59096 1.85565 5.79044C1.85379 5.99515 1.8513 6.19914 1.84881 6.40266Z" fill="#0083CA"/>
</svg>
