<svg width="24" height="24" viewBox="0 0 24 24" fill="none" xmlns="http://www.w3.org/2000/svg">
<path d="M23.1155 21.599H15V23.9989H23.1985C23.3792 24.0095 23.5575 23.9453 23.7035 23.8169C23.8494 23.6886 23.9541 23.5039 24 23.2939V22.7119C24 22.7119 23.994 21.599 23.1155 21.599ZM21.993 21.125C22.5257 21.124 23.0364 20.8693 23.4127 20.4169C23.789 19.9644 24.0003 19.3512 24 18.7119C24 17.3758 23.1 16.2982 21.993 16.2982C21.7294 16.2988 21.4684 16.3617 21.2251 16.4833C20.9817 16.6049 20.7607 16.7829 20.5747 17.007C20.3887 17.2312 20.2413 17.4971 20.141 17.7897C20.0406 18.0822 19.9893 18.3956 19.99 18.7119C19.99 20.0432 20.8875 21.125 21.993 21.125ZM17.766 20.999C18.819 20.999 19.666 20.1086 19.666 18.8469C19.6655 17.5876 18.8155 16.927 17.7705 16.9174L15 17.3386V20.999H17.766ZM8.7615 5.35954C9.991 5.35954 10.9855 4.1596 10.9855 2.67947C10.9855 1.19934 9.991 0 8.7615 0C7.533 0 6.537 1.19934 6.537 2.67947C6.537 4.1596 7.533 5.35954 8.7615 5.35954ZM6.4905 14.0327L6.4705 13.9979L5.4625 11.1817L5.461 16.7992H8.4735L9.1315 15.9592L7.347 15.1349C6.924 14.9441 6.6235 14.5121 6.4905 14.0327ZM7.129 13.7801C7.2265 14.0429 7.407 14.2559 7.634 14.3537L11.0725 15.883C11.1773 15.9384 11.2901 15.9683 11.4045 15.9711C11.5189 15.974 11.6327 15.9497 11.7393 15.8996C11.8459 15.8496 11.9432 15.7747 12.0256 15.6794C12.108 15.5841 12.1739 15.4702 12.2195 15.3443C12.3126 15.089 12.3177 14.7999 12.2338 14.5401C12.1498 14.2804 11.9837 14.071 11.7715 13.9577L8.599 12.5202L7.619 9.69974L8.258 9.41415L9.0885 11.8308L11.5 12.9036V9.95052L12.78 10.8643L13.418 14.7209C13.4547 14.8514 13.5127 14.9718 13.5884 15.0753C13.6642 15.1787 13.7563 15.2632 13.8595 15.3236C13.9626 15.3841 14.0747 15.4195 14.1893 15.4276C14.3038 15.4358 14.4186 15.4167 14.527 15.3713C14.7452 15.2781 14.9241 15.0855 15.0247 14.8351C15.1253 14.5847 15.1396 14.2969 15.0645 14.0339L14.3495 10.3195C14.3027 10.1139 14.2046 9.93031 14.0685 9.79333C13.702 9.30616 11.8485 6.81927 11.7165 6.65308C11.523 6.42029 11.0805 5.99971 10.2445 5.99971H7.2445C5.5395 5.99971 5.2115 8.08761 5.56 9.14956L7.129 13.7801ZM14.5 17.3992H0.9835C0.4915 17.3992 0 17.7322 0 18.4647V23.9989H14.5V17.3992Z" fill="white"/>
</svg>
