<svg width="24" height="24" viewBox="0 0 24 24" fill="none" xmlns="http://www.w3.org/2000/svg">
<path opacity="0.3" d="M22 21.0001C20.89 21.0001 20.27 20.6301 19.82 20.3601C19.45 20.1401 19.22 20.0001 18.67 20.0001C18.11 20.0001 17.89 20.1301 17.52 20.3601C17.06 20.6301 16.45 21.0001 15.34 21.0001C14.23 21.0001 13.61 20.6301 13.16 20.3601C12.79 20.1401 12.56 20.0001 12.01 20.0001C11.45 20.0001 11.23 20.1301 10.86 20.3601C10.4 20.6301 9.78 21.0001 8.67 21.0001C7.56 21.0001 6.94 20.6301 6.49 20.3601C6.12 20.1301 5.89 20.0001 5.34 20.0001C4.79 20.0001 4.56 20.1301 4.19 20.3601C3.73 20.6301 3.11 21.0001 2 21.0001V19.0001C2.56 19.0001 2.78 18.8701 3.15 18.6401C3.61 18.3701 4.23 18.0001 5.34 18.0001C6.45 18.0001 7.07 18.3701 7.52 18.6401C7.89 18.8701 8.11 19.0001 8.67 19.0001C9.23 19.0001 9.45 18.8701 9.82 18.6401C10.28 18.3701 10.9 18.0001 12.01 18.0001C13.12 18.0001 13.74 18.3701 14.19 18.6401C14.56 18.8601 14.79 19.0001 15.34 19.0001C15.89 19.0001 16.12 18.8701 16.49 18.6401C16.94 18.3701 17.56 18.0001 18.67 18.0001C19.78 18.0001 20.4 18.3701 20.85 18.6401C21.22 18.8701 21.44 19.0001 22 19.0001V21.0001ZM22 16.5001C20.89 16.5001 20.27 16.1301 19.82 15.8601C19.45 15.6401 19.22 15.5001 18.67 15.5001C18.11 15.5001 17.89 15.6301 17.52 15.8601C17.07 16.1301 16.45 16.5001 15.34 16.5001C14.23 16.5001 13.61 16.1301 13.16 15.8601C12.79 15.6401 12.56 15.5001 12.01 15.5001C11.45 15.5001 11.23 15.6301 10.86 15.8601C10.41 16.1301 9.79 16.5001 8.68 16.5001C7.57 16.5001 6.95 16.1301 6.5 15.8601C6.13 15.6401 5.9 15.5001 5.35 15.5001C4.8 15.5001 4.57 15.6301 4.2 15.8601C3.73 16.1301 3.11 16.5001 2 16.5001V14.5001C2.56 14.5001 2.78 14.3701 3.15 14.1401C3.6 13.8701 4.22 13.5001 5.33 13.5001C6.44 13.5001 7.06 13.8701 7.51 14.1401C7.88 14.3601 8.11 14.5001 8.66 14.5001C9.22 14.5001 9.44 14.3701 9.81 14.1401C10.26 13.8701 10.88 13.5001 11.99 13.5001C13.1 13.5001 13.72 13.8701 14.17 14.1401C14.54 14.3601 14.77 14.5001 15.32 14.5001C15.87 14.5001 16.1 14.3701 16.47 14.1401C16.92 13.8701 17.54 13.5001 18.65 13.5001C19.76 13.5001 20.38 13.8701 20.83 14.1401C21.2 14.3601 21.43 14.5001 21.98 14.5001V16.5001H22ZM8.67 12.0001C9.23 12.0001 9.45 11.8701 9.82 11.6401C10.28 11.3701 10.9 11.0001 12.01 11.0001C13.12 11.0001 13.74 11.3701 14.19 11.6401C14.56 11.8601 14.79 12.0001 15.34 12.0001C15.89 12.0001 16.12 11.8701 16.49 11.6401C16.61 11.5701 16.75 11.4901 16.9 11.4101L10.48 5.00007C8.93 3.45007 7.5 2.99007 5 3.00007V5.50007C6.82 5.49007 7.89 5.89007 9 7.00007L10 8.00007L6.75 11.2501C7.06 11.3701 7.31 11.5201 7.52 11.6401C7.89 11.8701 8.11 12.0001 8.67 12.0001Z" fill="white"/>
<path opacity="0.3" d="M16.5 8C17.8807 8 19 6.88071 19 5.5C19 4.11929 17.8807 3 16.5 3C15.1193 3 14 4.11929 14 5.5C14 6.88071 15.1193 8 16.5 8Z" fill="white"/>
<path d="M22 16.5001H21.98H22ZM10 8.00007L6.75 11.2501C7.06 11.3701 7.31 11.5201 7.52 11.6401C7.89 11.8701 8.11 12.0001 8.67 12.0001C9.23 12.0001 9.45 11.8701 9.82 11.6401C10.28 11.3701 10.9 11.0001 12.01 11.0001C13.12 11.0001 13.74 11.3701 14.19 11.6401C14.56 11.8601 14.79 12.0001 15.34 12.0001C15.89 12.0001 16.12 11.8701 16.49 11.6401C16.61 11.5701 16.75 11.4901 16.9 11.4101L10.48 5.00007C8.93 3.45007 7.5 2.99007 5 3.00007V5.50007C6.82 5.49007 7.89 5.89007 9 7.00007L10 8.00007ZM5.35 15.5001C5.9 15.5001 6.13 15.6401 6.5 15.8601C6.95 16.1301 7.57 16.5001 8.68 16.5001C9.79 16.5001 10.41 16.1301 10.86 15.8601C11.23 15.6301 11.45 15.5001 12.01 15.5001C12.56 15.5001 12.79 15.6401 13.16 15.8601C13.61 16.1301 14.23 16.5001 15.34 16.5001C16.45 16.5001 17.07 16.1301 17.52 15.8601C17.89 15.6301 18.11 15.5001 18.67 15.5001C19.22 15.5001 19.45 15.6401 19.82 15.8601C20.27 16.1301 20.88 16.4901 21.98 16.5001V14.5001C21.43 14.5001 21.2 14.3601 20.83 14.1401C20.38 13.8701 19.76 13.5001 18.65 13.5001C17.54 13.5001 16.92 13.8701 16.47 14.1401C16.1 14.3701 15.87 14.5001 15.32 14.5001C14.77 14.5001 14.54 14.3601 14.17 14.1401C13.72 13.8701 13.1 13.5001 11.99 13.5001C10.88 13.5001 10.26 13.8701 9.81 14.1401C9.44 14.3701 9.22 14.5001 8.66 14.5001C8.11 14.5001 7.88 14.3601 7.51 14.1401C7.06 13.8701 6.44 13.5001 5.33 13.5001C4.22 13.5001 3.6 13.8701 3.15 14.1401C2.78 14.3701 2.56 14.5001 2 14.5001V16.5001C3.11 16.5001 3.73 16.1301 4.2 15.8601C4.57 15.6301 4.8 15.5001 5.35 15.5001ZM18.67 18.0001C17.56 18.0001 16.94 18.3701 16.49 18.6401C16.12 18.8701 15.89 19.0001 15.34 19.0001C14.79 19.0001 14.56 18.8601 14.19 18.6401C13.74 18.3701 13.12 18.0001 12.01 18.0001C10.9 18.0001 10.28 18.3701 9.82 18.6401C9.45 18.8701 9.23 19.0001 8.67 19.0001C8.11 19.0001 7.89 18.8701 7.52 18.6401C7.07 18.3701 6.45 18.0001 5.34 18.0001C4.23 18.0001 3.61 18.3701 3.15 18.6401C2.78 18.8701 2.56 19.0001 2 19.0001V21.0001C3.11 21.0001 3.73 20.6301 4.19 20.3601C4.56 20.1301 4.79 20.0001 5.34 20.0001C5.89 20.0001 6.12 20.1301 6.49 20.3601C6.94 20.6301 7.56 21.0001 8.67 21.0001C9.78 21.0001 10.4 20.6301 10.86 20.3601C11.23 20.1301 11.45 20.0001 12.01 20.0001C12.56 20.0001 12.79 20.1401 13.16 20.3601C13.61 20.6301 14.23 21.0001 15.34 21.0001C16.45 21.0001 17.06 20.6301 17.52 20.3601C17.89 20.1301 18.11 20.0001 18.67 20.0001C19.22 20.0001 19.45 20.1401 19.82 20.3601C20.27 20.6301 20.89 21.0001 22 21.0001V19.0001C21.44 19.0001 21.22 18.8701 20.85 18.6401C20.4 18.3701 19.78 18.0001 18.67 18.0001Z" fill="white"/>
<path d="M16.5 8C17.8807 8 19 6.88071 19 5.5C19 4.11929 17.8807 3 16.5 3C15.1193 3 14 4.11929 14 5.5C14 6.88071 15.1193 8 16.5 8Z" fill="white"/>
</svg>
