<svg width="24" height="24" viewBox="0 0 24 24" fill="none" xmlns="http://www.w3.org/2000/svg">
<path d="M20.57 10.6631C20.43 10.2631 20.05 10.0031 19.6 10.0031H12.41C11.95 10.0031 11.58 10.2631 11.43 10.6631L10 14.7731L10.01 20.2831C10.01 20.6631 10.32 21.0031 10.7 21.0031H11.32C11.7 21.0031 12 20.6231 12 20.2431V19.0031H20V20.2431C20 20.6231 20.31 21.0031 20.69 21.0031H21.3C21.68 21.0031 21.99 20.6631 21.99 20.2831L22 18.9131V14.7731L20.57 10.6631ZM12.41 11.0031H19.6L20.63 14.0031H11.38L12.41 11.0031ZM12 17.0031C11.45 17.0031 11 16.5531 11 16.0031C11 15.4531 11.45 15.0031 12 15.0031C12.55 15.0031 13 15.4531 13 16.0031C13 16.5531 12.55 17.0031 12 17.0031ZM20 17.0031C19.45 17.0031 19 16.5531 19 16.0031C19 15.4531 19.45 15.0031 20 15.0031C20.55 15.0031 21 15.4531 21 16.0031C21 16.5531 20.55 17.0031 20 17.0031Z" fill="white"/>
<path d="M14 9H15V3H7V8H2V21H3V9H8V4H14V9Z" fill="white"/>
<path d="M5 10.9969H7V12.9969H5V10.9969ZM10 4.99689H12V6.99689H10V4.99689ZM5 14.9969H7V16.9969H5V14.9969ZM5 18.9969H7V20.9969H5V18.9969Z" fill="white"/>
</svg>
