<svg width="17" height="17" viewBox="0 0 17 17" fill="none" xmlns="http://www.w3.org/2000/svg">
<path d="M7.97712 14.7957C7.67568 13.076 6.77623 11.4537 5.31246 10.267C3.84868 9.08032 2.07545 8.53586 0.327214 8.59699C0.27822 8.59956 0.232123 8.621 0.198589 8.65682C0.165056 8.69263 0.146689 8.74003 0.147341 8.78909L0.16957 10.1015C0.172185 10.2062 0.259133 10.2888 0.363838 10.2861C1.7244 10.2305 3.10822 10.6524 4.24975 11.5779C5.39128 12.5033 6.09025 13.7699 6.31874 15.1108C6.33784 15.2137 6.4366 15.2817 6.53958 15.2626L7.8282 15.0129C7.92788 14.9942 7.9944 14.8972 7.97712 14.7957ZM12.1824 13.9778C11.6582 11.3232 10.2377 8.82895 7.96921 6.98989C5.70072 5.15082 2.96658 4.27691 0.259123 4.31168C0.209324 4.31265 0.161928 4.33327 0.127272 4.36905C0.0926173 4.40482 0.0735146 4.45285 0.0741307 4.50266L0.0963613 5.81505C0.0971558 5.91828 0.184103 6.00084 0.285511 5.99857C2.61041 5.97046 4.96027 6.72292 6.90651 8.30074C8.85275 9.87855 10.075 12.022 10.5265 14.3009C10.5471 14.4021 10.644 14.4686 10.7452 14.448L12.0338 14.1983C12.135 14.1778 12.2029 14.079 12.1824 13.9778ZM16.3586 13.1696C15.6185 9.56447 13.6719 6.18208 10.5896 3.68325C7.52727 1.20066 3.8454 -0.00407886 0.188273 6.54297e-06C0.16326 -0.000103776 0.138477 0.0047919 0.115384 0.0144055C0.0922918 0.024019 0.0713562 0.0381561 0.0538104 0.0559839C0.0362647 0.0738118 0.0224639 0.0949696 0.0132199 0.118213C0.00397589 0.141455 -0.000524061 0.166313 -1.48813e-05 0.191321L0.022215 1.50372C0.0244851 1.60513 0.108137 1.68803 0.208069 1.68758C3.48742 1.688 6.78318 2.7698 9.52685 4.9941C12.2906 7.23463 14.0352 10.2632 14.7031 13.496C14.7237 13.5972 14.8221 13.6619 14.9233 13.6413L16.2119 13.3916C16.3149 13.3725 16.381 13.2723 16.3586 13.1696ZM0.645751 13.6043C0.395221 13.9133 0.277714 14.3092 0.31908 14.7049C0.360445 15.1006 0.557295 15.4636 0.866324 15.7141C1.17535 15.9646 1.57125 16.0821 1.96692 16.0408C2.36259 15.9994 2.72562 15.8026 2.97615 15.4935C3.22668 15.1845 3.34418 14.7886 3.30282 14.3929C3.26145 13.9973 3.0646 13.6342 2.75557 13.3837C2.44654 13.1332 2.05065 13.0157 1.65498 13.057C1.25931 13.0984 0.89628 13.2953 0.645751 13.6043Z" fill="white"/>
</svg>
