<svg width="35" height="34" viewBox="0 0 35 34" fill="none" xmlns="http://www.w3.org/2000/svg">
<g clip-path="url(#clip0_750_784)">
<path d="M20.0045 21.9682C19.703 20.2484 18.8036 18.6262 17.3398 17.4395C15.876 16.2528 14.1028 15.7083 12.3546 15.7695C12.3056 15.772 12.2595 15.7935 12.2259 15.8293C12.1924 15.8651 12.174 15.9125 12.1747 15.9616L12.1969 17.274C12.1995 17.3787 12.2865 17.4612 12.3912 17.4586C13.7517 17.403 15.1356 17.8249 16.2771 18.7503C17.4186 19.6758 18.1176 20.9424 18.3461 22.2832C18.3652 22.3862 18.4639 22.4542 18.5669 22.4351L19.8555 22.1854C19.9552 22.1667 20.0217 22.0697 20.0045 21.9682ZM24.2097 21.1503C23.6856 18.4957 22.265 16.0014 19.9966 14.1624C17.7281 12.3233 14.9939 11.4494 12.2865 11.4842C12.2367 11.4851 12.1893 11.5058 12.1546 11.5415C12.12 11.5773 12.1009 11.6253 12.1015 11.6751L12.1237 12.9875C12.1245 13.0908 12.2114 13.1733 12.3129 13.1711C14.6378 13.1429 16.9876 13.8954 18.9339 15.4732C20.8801 17.051 22.1023 19.1944 22.5538 21.4734C22.5744 21.5746 22.6714 21.6411 22.7725 21.6205L24.0611 21.3708C24.1623 21.3502 24.2303 21.2515 24.2097 21.1503ZM28.386 20.3421C27.6458 16.737 25.6992 13.3546 22.6169 10.8557C19.5546 8.37315 15.8727 7.16841 12.2156 7.17249C12.1906 7.17238 12.1658 7.17728 12.1427 7.18689C12.1196 7.1965 12.0987 7.21064 12.0812 7.22847C12.0636 7.2463 12.0498 7.26745 12.0406 7.2907C12.0313 7.31394 12.0268 7.3388 12.0273 7.36381L12.0496 8.6762C12.0518 8.77761 12.1355 8.86051 12.2354 8.86006C15.5148 8.86048 18.8105 9.94229 21.5542 12.1666C24.3179 14.4071 26.0626 17.4357 26.7305 20.6685C26.751 20.7697 26.8494 20.8344 26.9506 20.8138L28.2392 20.5641C28.3422 20.545 28.4084 20.4448 28.386 20.3421ZM12.6731 20.7768C12.4226 21.0858 12.3051 21.4817 12.3464 21.8774C12.3878 22.273 12.5846 22.6361 12.8937 22.8866C13.2027 23.1371 13.5986 23.2546 13.9943 23.2133C14.3899 23.1719 14.753 22.9751 15.0035 22.666C15.254 22.357 15.3715 21.9611 15.3302 21.5654C15.2888 21.1698 15.0919 20.8067 14.7829 20.5562C14.4739 20.3057 14.078 20.1882 13.6823 20.2295C13.2867 20.2709 12.9236 20.4677 12.6731 20.7768Z" fill="white"/>
</g>
<defs>
<clipPath id="clip0_750_784">
<rect width="24" height="24" fill="white" transform="translate(16) rotate(39.0316)"/>
</clipPath>
</defs>
</svg>
