<svg width="17" height="15" viewBox="0 0 17 15" fill="none" xmlns="http://www.w3.org/2000/svg">
<path d="M16.747 2.49744C16.1555 2.75953 15.5201 2.93661 14.8522 3.01665C15.5414 2.60425 16.057 1.95519 16.3029 1.19057C15.6553 1.57518 14.9466 1.84591 14.2076 1.99098C13.7106 1.46035 13.0524 1.10863 12.335 0.990444C11.6176 0.872258 10.8813 0.994211 10.2404 1.33737C9.59945 1.68053 9.08973 2.2257 8.79038 2.88823C8.49102 3.55077 8.41877 4.2936 8.58485 5.0014C7.2728 4.93552 5.98925 4.5945 4.81753 4.00046C3.6458 3.40642 2.61207 2.57264 1.78343 1.55323C1.5001 2.04198 1.33718 2.60865 1.33718 3.21215C1.33687 3.75544 1.47066 4.29041 1.72668 4.76959C1.98271 5.24877 2.35305 5.65734 2.80485 5.95907C2.28088 5.94239 1.76847 5.80081 1.31027 5.54611V5.58861C1.31021 6.35059 1.57379 7.08913 2.05627 7.6789C2.53875 8.26867 3.21042 8.67335 3.95731 8.82428C3.47124 8.95582 2.96163 8.9752 2.46698 8.88094C2.6777 9.53658 3.08818 10.1099 3.64094 10.5207C4.19371 10.9314 4.86108 11.1591 5.54964 11.1717C4.38077 12.0893 2.93723 12.587 1.45123 12.5848C1.188 12.5849 0.924988 12.5695 0.663559 12.5388C2.17194 13.5086 3.9278 14.0233 5.72106 14.0213C11.7915 14.0213 15.11 8.99357 15.11 4.63307C15.11 4.4914 15.1065 4.34832 15.1001 4.20665C15.7456 3.73984 16.3028 3.16178 16.7456 2.49957L16.747 2.49744Z" fill="white"/>
</svg>
