<svg width="17" height="13" viewBox="0 0 17 13" fill="none" xmlns="http://www.w3.org/2000/svg">
<path d="M16.6457 2.60889C16.5494 2.26552 16.3619 1.95464 16.1031 1.70931C15.8369 1.45644 15.5108 1.27555 15.1553 1.18373C13.8251 0.833102 8.49558 0.833102 8.49558 0.833102C6.27377 0.807824 4.05251 0.919005 1.84433 1.16602C1.48888 1.26463 1.16331 1.44956 0.896577 1.70435C0.634493 1.95652 0.44466 2.26748 0.345493 2.60819C0.107276 3.8915 -0.00846633 5.19455 -0.00017318 6.49977C-0.00867318 7.80381 0.106785 9.10643 0.345493 10.3914C0.442535 10.7306 0.63166 11.0402 0.894452 11.2902C1.15724 11.5403 1.48449 11.7209 1.84433 11.8165C3.19229 12.1664 8.49558 12.1664 8.49558 12.1664C10.7202 12.1917 12.9443 12.0806 15.1553 11.8335C15.5108 11.7417 15.8369 11.5608 16.1031 11.3079C16.3652 11.0579 16.5515 10.7469 16.645 10.4084C16.8894 9.12553 17.0082 7.82194 16.9998 6.51606C17.0182 5.20466 16.8995 3.89492 16.6457 2.60819V2.60889ZM6.80124 8.9251V4.07514L11.2354 6.50048L6.80124 8.9251Z" fill="white"/>
</svg>
